<svg xmlns="http://www.w3.org/2000/svg" xmlns:xlink="http://www.w3.org/1999/xlink" width="938.078" height="588.057" viewBox="0 0 938.078 588.057">
  <defs>
    <clipPath id="clip-path">
      <path id="Path_1911" data-name="Path 1911" d="M1047.008,886.075c-1.16-4.836-2.9-9.811-6.5-12.947s-9.538-3.6-12.531.21c-1.013,1.29-1.6,2.92-2.627,4.2-3.09,3.85-10.844,1.262-14.844,1.157-6.25-.164-12.5.205-18.735.623-15.207,1.018-30.394,2.347-45.581,3.675l-42.523,3.72c-7.211.631-14.465,1.561-21.687,1.96-6.267.345-11.4-1.094-17.549,1.786-5.161,2.418-9.525,6.218-13.852,9.927-6.475,5.547-13.036,11-19.447,16.619-3.664,3.213-7.279,6.479-10.8,9.85-9.858,9.437-18.937,19.649-28,29.847l-22.912,25.773c14.536,11.243,27.738,24.111,40.7,37.169,2.3-2.1,4.543-4.59,6.127-6.007q5.061-4.527,9.83-9.367c1.606-1.63,3.239-3.374,3.887-5.568.515-1.743.359-3.617.747-5.393,1.262-5.776,7.5-8.687,11.993-12.525,6.468-5.52,7.454-13.263,11.6-20.168,3.7-6.172,11.219-8.856,16.281-13.973,4.728-4.779,7.059-11.4,11.085-16.788,3.29-4.4,11.379-10.506,16.925-6.442,4.406,3.229,3.768,10.623,9.091,13.272,3.642,1.813,8.023,1.711,11.948,2.409,13.4,2.38,26.941,3.708,40.466,5.033l23.085,2.263c12.827,1.257,25.984,2.485,38.4-1.206,9.847-2.926,19.407-9.584,24.363-19.457a32.9,32.9,0,0,0,2.633-7.512C1050.921,907.878,1049.323,895.72,1047.008,886.075Z" fill="none"/>
    </clipPath>
    <clipPath id="clip-path-2">
      <path id="Path_1918" data-name="Path 1918" d="M871.938,935.18c.838,2.2,1.263,4.541,1.973,6.789a55.767,55.767,0,0,0,5.494,11.211q7.765,13.239,15.532,26.476l7.765,13.238c.338.576.92,1.81,1.624,3.265q21.072-12.318,41.165-26.24c-3.028-4.936-6.459-9.7-7.159-15.376-.356-2.88.04-5.812-.313-8.692-.853-6.956-5.833-12.559-9.984-18.206-7.432-10.11-12.72-21.592-19.021-32.449q-1.122-1.934-2.293-3.838a82.543,82.543,0,0,0-15.885-19.422,64.863,64.863,0,0,0-10.244-6.907c-3.025-1.751-5.266-4.274-8.551-5.625-14.293-5.879-25.546,5.66-25.98,20.117-.308,10.269,4.287,20.015,9.367,28.945q5.234,9.2,11.3,17.9A41.909,41.909,0,0,1,871.938,935.18Z" fill="none"/>
    </clipPath>
    <clipPath id="clip-path-3">
      <rect id="Rectangle_420" data-name="Rectangle 420" width="180.073" height="148.06" transform="translate(1248.299 678.401)" fill="none"/>
    </clipPath>
    <clipPath id="clip-path-4">
      <path id="Path_1939" data-name="Path 1939" d="M1282.081,679.817a4.93,4.93,0,1,1-5.141-4.709A4.928,4.928,0,0,1,1282.081,679.817Z" fill="#fff"/>
    </clipPath>
    <clipPath id="clip-path-5">
      <rect id="Rectangle_424" data-name="Rectangle 424" width="206.937" height="147.243" transform="translate(608.461 597.269)" fill="none"/>
    </clipPath>
    <clipPath id="clip-path-6">
      <path id="Path_1965" data-name="Path 1965" d="M642.056,594.034a4.9,4.9,0,1,1-5.113-4.683A4.9,4.9,0,0,1,642.056,594.034Z" fill="#fff"/>
    </clipPath>
    <clipPath id="clip-path-7">
      <rect id="Rectangle_428" data-name="Rectangle 428" width="140.221" height="105.642" rx="5.282" transform="translate(979.617 466.179)" fill="none"/>
    </clipPath>
  </defs>
  <g id="Group_1154" data-name="Group 1154" transform="translate(-490.961 -465.679)">
    <g id="Group_260" data-name="Group 260">
      <line id="Line_1" data-name="Line 1" x2="899.414" transform="translate(490.961 1014.907)" fill="#fff" stroke="#002e4e" stroke-miterlimit="10" stroke-width="2"/>
      <line id="Line_2" data-name="Line 2" x2="12.025" transform="translate(1188.021 1052.736)" fill="#fff" stroke="#002e4e" stroke-linecap="round" stroke-miterlimit="10" stroke-width="2"/>
      <line id="Line_3" data-name="Line 3" x2="3.543" transform="translate(1178.734 1052.736)" fill="#fff" stroke="#002e4e" stroke-linecap="round" stroke-miterlimit="10" stroke-width="2"/>
      <line id="Line_4" data-name="Line 4" x2="511.133" transform="translate(659.511 1052.736)" fill="#fff" stroke="#002e4e" stroke-linecap="round" stroke-miterlimit="10" stroke-width="2"/>
      <line id="Line_5" data-name="Line 5" x2="3.787" transform="translate(650.511 1052.736)" fill="#fff" stroke="#002e4e" stroke-linecap="round" stroke-miterlimit="10" stroke-width="2"/>
      <line id="Line_6" data-name="Line 6" x2="10.149" transform="translate(632.511 1052.736)" fill="#fff" stroke="#002e4e" stroke-linecap="round" stroke-miterlimit="10" stroke-width="2"/>
      <g id="Group_214" data-name="Group 214">
        <path id="Path_1874" data-name="Path 1874" d="M1008.626,651.4" fill="none" stroke="#f7dfd8" stroke-miterlimit="10" stroke-width="0.514"/>
      </g>
      <g id="Group_224" data-name="Group 224">
        <g id="Group_217" data-name="Group 217">
          <rect id="Rectangle_418" data-name="Rectangle 418" width="77.238" height="15.844" rx="7.922" transform="translate(714.751 1025.524)" fill="#292929" opacity="0.15"/>
          <g id="Group_216" data-name="Group 216">
            <path id="Path_1875" data-name="Path 1875" d="M1156.58,902.433a132.08,132.08,0,0,1-13.449-61.893c.305-10.406,1.844-20.854.536-31.182-2.771-21.88-18.613-40.854-38.426-50.544s-43.021-10.869-64.67-6.659c-35.1,6.825-63.251,28.764-66.562,65.823-1.9,21.249,2.184,42.693.322,63.945a85.088,85.088,0,0,1-2.813,15.43q-5.31.358-10.6.752l-80.441,5.875c-17.68,1.291-35.536,1.723-48.047,15.219a96.428,96.428,0,0,0-24.666,52.117c-1.978,14.636.229,31.223,11.321,40.974a31.306,31.306,0,0,0,2.847,2.21h269.209c18.545,0,36.761-6.081,50.95-18.022q1.289-1.085,2.538-2.225C1171.383,969.827,1171.548,932.852,1156.58,902.433Z" fill="#fff" stroke="#002e4e" stroke-miterlimit="10" stroke-width="1"/>
            <path id="Path_1876" data-name="Path 1876" d="M1006.747,880.189c-6.619-6.356-13.716-12.275-19.947-19.018-7.864-8.511-12.324-18.665-17.093-29.106-5.1-11.176-9.183-23.153-8.855-35.593.412-15.6,7.941-30.626,19.271-41.365,6.55-6.208,16.56-11.492,18-20.863,1.389-9.061-.781-19.323,4.653-27.378,7.705-11.419,29.11-.789,35.714,6.9,8.654,10.07,7.71,26.861,19.6,34.454,4.489,2.867,10,3.517,14.981,5.412a31.819,31.819,0,0,1,19.2,21.591c2.287,9.08,2.2,18.8,9.189,25.857,7.35,7.426,14.221,13.788,18.047,23.908,2.934,7.764,4.2,16.059,4.933,24.327,1.764,19.869-12.561,37.222-29.447,46.628a74.262,74.262,0,0,1-42.557,8.773c-12.25-1.1-28.183-4.51-36.08-14.254A112.624,112.624,0,0,0,1006.747,880.189Z" fill="#002e4e"/>
            <path id="Path_1877" data-name="Path 1877" d="M984.775,814.713c-8.188,24.068-30.4,42.778-55.5,46.764,3.1,5.332,4.4,10.207,6.064,16.145,17.262.232,35.3-4.594,47.585-16.72s17.163-32.462,8.409-47.341C990.261,811.746,985.453,812.72,984.775,814.713Z" fill="#fff" stroke="#002e4e" stroke-miterlimit="10" stroke-width="1"/>
            <path id="Path_1878" data-name="Path 1878" d="M975.471,804.7c2.916-7.878,8.112-15.527,11.828-22.712q3.225-6.238,6.452-12.477c1.433-2.77,3.135-8.711,6.353-9.915,2.591-.969,5.676,1.27,8.047,2.122,3.478,1.25,7.063,2.2,10.546,3.443,6.935,2.476,13.814,5.673,18.889,11.17,5.239,5.673,8.836,13.251,8.224,21.243-.346,4.525-2.309,8.751-3.359,13.167-1.224,5.152-1.193,10.512-1.063,15.807a464.033,464.033,0,0,0,3.77,48.784c.37,2.833.747,5.823-.357,8.458-2.78,6.632-20.336,4.929-26.577,5.485-9.986.888-21.483,3.283-30.9-1.259a248.53,248.53,0,0,1-1.79-31.068c.045-8.655,2.446-17.4-3.033-24.826-4.774-6.475-10.339-12.25-8.842-20.9A37.143,37.143,0,0,1,975.471,804.7Z" fill="#80e0dd" stroke="#002e4e" stroke-miterlimit="10" stroke-width="1"/>
            <path id="Path_1879" data-name="Path 1879" d="M997.3,756.306a48.888,48.888,0,0,0,.057-8.1c-.255-2.2-1.835-3.1-3.5-4.472-7.069-5.8-8.487-14.966-6.243-23.433a13.444,13.444,0,0,0,.554-2.762,18.954,18.954,0,0,0-.187-2.624,13.844,13.844,0,0,1,2.446-9.411c4.3-5.835,14.626-6.185,20.385-2.45,7.819,5.07,8.892,15.884,9.167,25.2q.323,10.871.643,21.742c.231,7.789.858,17.6-7.278,21.7a13.023,13.023,0,0,1-9.181.922,9.813,9.813,0,0,1-4.769-2.8C996.268,766.324,997.077,760.606,997.3,756.306Z" fill="#fff" stroke="#002e4e" stroke-miterlimit="10" stroke-width="1"/>
            <g id="Group_215" data-name="Group 215">
              <path id="Path_1880" data-name="Path 1880" d="M993.55,759.228" fill="none" stroke="#8739c2" stroke-miterlimit="10" stroke-width="0.75"/>
            </g>
            <path id="Path_1881" data-name="Path 1881" d="M802.79,1001.9l11.434-11.773c4.127-4.25,8.278-8.529,11.567-13.456a48.875,48.875,0,0,0,6.336-13.7c1.23-4.313,1.8-9.176-.372-13.1-2.435-4.4-7.916-6.5-12.919-6s-9.547,3.191-13.386,6.439c-8.5,7.193-13.788,16.34-18.79,26.053q-8.539,16.584-17.729,32.823c-1.187,2.1-3.96,5.953-3.626,8.5.372,2.839,4.132,3.362,6.764,3.607,6.311.586,12.364-.5,16.877-5.143Z" fill="#fff" stroke="#002e4e" stroke-miterlimit="10" stroke-width="1"/>
            <path id="Path_1882" data-name="Path 1882" d="M770.711,1004.99a4.588,4.588,0,0,0-3.505-.636,8.773,8.773,0,0,0-3.064,1.589,91.384,91.384,0,0,1-28.845,13.216c-5.116,1.332-10.753,2.453-14.174,6.484-2.669,3.145-.175,6.069,2.926,7.491,4.513,2.07,10.454,2.077,15.28,1.324,12.315-1.919,24.651,1.371,36.981.009,9.272-1.024,11.87-7.9,14.381-15.981.383-1.232.848-2.458,1.192-3.676-2.972-1.174-6.869-.7-10.108-1.884a20.165,20.165,0,0,1-7.458-4.548A22.362,22.362,0,0,0,770.711,1004.99Z" fill="#002e4e"/>
            <path id="Path_1883" data-name="Path 1883" d="M1047.008,886.075c-1.16-4.836-2.9-9.811-6.5-12.947s-9.538-3.6-12.531.21c-1.013,1.29-1.6,2.92-2.627,4.2-3.09,3.85-10.844,1.262-14.844,1.157-6.25-.164-12.5.205-18.735.623-15.207,1.018-30.394,2.347-45.581,3.675l-42.523,3.72c-7.211.631-14.465,1.561-21.687,1.96-6.267.345-11.4-1.094-17.549,1.786-5.161,2.418-9.525,6.218-13.852,9.927-6.475,5.547-13.036,11-19.447,16.619-3.664,3.213-7.279,6.479-10.8,9.85-9.858,9.437-18.937,19.649-28,29.847l-22.912,25.773c14.536,11.243,27.738,24.111,40.7,37.169,2.3-2.1,4.543-4.59,6.127-6.007q5.061-4.527,9.83-9.367c1.606-1.63,3.239-3.374,3.887-5.568.515-1.743.359-3.617.747-5.393,1.262-5.776,7.5-8.687,11.993-12.525,6.468-5.52,7.454-13.263,11.6-20.168,3.7-6.172,11.219-8.856,16.281-13.973,4.728-4.779,7.059-11.4,11.085-16.788,3.29-4.4,11.379-10.506,16.925-6.442,4.406,3.229,3.768,10.623,9.091,13.272,3.642,1.813,8.023,1.711,11.948,2.409,13.4,2.38,26.941,3.708,40.466,5.033l23.085,2.263c12.827,1.257,25.984,2.485,38.4-1.206,9.847-2.926,19.407-9.584,24.363-19.457a32.9,32.9,0,0,0,2.633-7.512C1050.921,907.878,1049.323,895.72,1047.008,886.075Z" fill="#fff" stroke="#002e4e" stroke-miterlimit="10" stroke-width="1"/>
            <path id="Path_1884" data-name="Path 1884" d="M1059,795.045c15.061,8.4,17.416,26.883,17.9,43.3.246,8.44-.235,17.09-3.408,24.916-8.506,20.975-34.262,26.243-54.387,25.544A228.581,228.581,0,0,1,943.3,873.1a45.152,45.152,0,0,1,1.475-13.089,188.759,188.759,0,0,0,47.047,6.262c11.5.073,23.177-.939,33.9-4.711,6.928-2.438,13.734-6.377,16.752-12.531,5.425-11.031-3.63-22.872-4.9-33.85-.447-3.855-.875-7.883.493-11.515a22.984,22.984,0,0,1,2.424-4.414c1.366-2.086,2.842-4.208,4.978-5.493,3.13-1.881,7.188-1.6,10.548-.175A30.986,30.986,0,0,1,1059,795.045Z" fill="#fff" stroke="#002e4e" stroke-miterlimit="10" stroke-width="1"/>
            <path id="Path_1885" data-name="Path 1885" d="M864.226,886.892H970.362a4.232,4.232,0,0,0,2.089-.538h0c2.916-1.666,1.47-5.4-2.089-5.4H864.226a4.231,4.231,0,0,0-2.089.537h0C859.221,883.155,860.666,886.892,864.226,886.892Z" fill="#002e4e"/>
            <path id="Path_1886" data-name="Path 1886" d="M863.5,887.16H964.2a1.541,1.541,0,0,0,1.274-2.408l-34.34-50.4a1.541,1.541,0,0,0-1.273-.674h-100.7a1.541,1.541,0,0,0-1.273,2.409l34.339,50.4A1.541,1.541,0,0,0,863.5,887.16Z" fill="#002e4e"/>
            <path id="Path_1887" data-name="Path 1887" d="M998.172,711.845a14.968,14.968,0,0,1,8.942.233,17.121,17.121,0,0,1,8.115,6.226c2.453,3.482,2.729,6.436,3.107,10.618l2.586,28.589a10.7,10.7,0,0,0,1.08,4.494,8.553,8.553,0,0,0,4.97,3.439c3.48,1.121,7.474,1.235,10.624-.62s5-5.442,5.629-9.057.194-7.321-.238-10.965c-1.363-11.506-2.041-22.064-6.784-32.822-3.815-8.649-13.295-13.559-22.621-15.1a49.84,49.84,0,0,0-24.735,2.211,15.692,15.692,0,0,0-6.929,4.2c-2.826,3.338-2.522,7.2,1.689,8.394,2.9.821,5.9,1.649,8.889,1.284C994.566,712.714,996.393,712.23,998.172,711.845Z" fill="#002e4e"/>
            <path id="Path_1888" data-name="Path 1888" d="M1013.2,724.379c1.6-2.817,5.083-4.587,8.1-2.741,3.2,1.959,2.651,6.567.062,8.8-2.45,2.112-6.821,1.659-7.905-1.739a4.32,4.32,0,0,1-.148-1.9A2.156,2.156,0,0,1,1013.2,724.379Z" fill="#fff"/>
            <path id="Path_1889" data-name="Path 1889" d="M1044.261,825.551c1.225-.457,2.449-.92,3.678-1.367a.831.831,0,0,1,.547-.57c9.257-3.427,18.308-7.375,27.515-10.929-2.091-6.642-5.6-12.539-8.746-18.7a48.659,48.659,0,0,0-10.406-14.22,80.081,80.081,0,0,0-17.124-12.307c-1.575-.8-19.432-8.225-19.538-7.9a82.807,82.807,0,0,0-2.952,14.4c-.395,3.248-.157,6.1-.915,9.444-1.163,5.132-1.113,10.553,1.5,15.252,3.624,6.52,7.119,13.213,11.075,19.5l6.495,10.326a50,50,0,0,1,7.513-2.6C1043.353,825.775,1043.808,825.666,1044.261,825.551Z" fill="#80e0dd" stroke="#002e4e" stroke-miterlimit="10" stroke-width="1"/>
            <path id="Path_1890" data-name="Path 1890" d="M992.549,735.9a5.585,5.585,0,0,0,7.374-.017c.435-.412.334-1.124.39-1.721s-.379-1.278-.977-1.244a1.558,1.558,0,0,0-.533.161C996.956,733.9,994.4,735.093,992.549,735.9Z" fill="#002e4e"/>
            <path id="Path_1891" data-name="Path 1891" d="M896.832,854.854a5.453,5.453,0,0,0-5.793,9.241" fill="none" stroke="#c9cdd1" stroke-miterlimit="10" stroke-width="1"/>
            <path id="Path_1892" data-name="Path 1892" d="M934.549,966.954c-2.714-7.675-4.405-15.847-6.783-23.664a35.5,35.5,0,0,0-4.469-10.156,14.637,14.637,0,0,0-8.884-6.262c-6.241-1.2-12.477,3.269-15.343,8.942-7.453,14.75-1.093,31.1,8.565,42.934,3.283,4.024,6.847,7.8,10.226,11.746,3.4,3.965,5.85,9.187,9.324,12.916,5.35,5.742,14.662,1.99,19.049-3.189,5.255-6.2-1.509-14.609-5.1-19.832A57.055,57.055,0,0,1,934.549,966.954Z" fill="#fff" stroke="#002e4e" stroke-miterlimit="10" stroke-width="1"/>
            <path id="Path_1893" data-name="Path 1893" d="M944.45,988.863c-.3.193-.628.425-.991.694-5.1,3.789-10.762,6.434-16.3,9.5a9.448,9.448,0,0,0-3.466,2.76c-1.454,2.181.124,3.742.413,5.9a46.045,46.045,0,0,1-1.7,19.782c-1.949,6.124-9.528,14.545-7.637,21.306,1.247,4.456,7.5,3.776,10.991,2.809,5.117-1.418,9.3-5.288,12.006-9.75s4.651-9.351,7.038-14a81.239,81.239,0,0,1,7.717-12.213,28.506,28.506,0,0,0,3.786-5.7,12.667,12.667,0,0,0-2.327-13.133c-1.655-1.911-2.856-4.17-4.457-6.123C947.365,988.072,946.66,987.438,944.45,988.863Z" fill="#002e4e"/>
            <path id="Path_1894" data-name="Path 1894" d="M871.938,935.18c.838,2.2,1.263,4.541,1.973,6.789a55.767,55.767,0,0,0,5.494,11.211q7.765,13.239,15.532,26.476l7.765,13.238c.338.576.92,1.81,1.624,3.265q21.072-12.318,41.165-26.24c-3.028-4.936-6.459-9.7-7.159-15.376-.356-2.88.04-5.812-.313-8.692-.853-6.956-5.833-12.559-9.984-18.206-7.432-10.11-12.72-21.592-19.021-32.449q-1.122-1.934-2.293-3.838a82.543,82.543,0,0,0-15.885-19.422,64.863,64.863,0,0,0-10.244-6.907c-3.025-1.751-5.266-4.274-8.551-5.625-14.293-5.879-25.546,5.66-25.98,20.117-.308,10.269,4.287,20.015,9.367,28.945q5.234,9.2,11.3,17.9A41.909,41.909,0,0,1,871.938,935.18Z" fill="#fff" stroke="#002e4e" stroke-miterlimit="10" stroke-width="1"/>
            <path id="Path_1895" data-name="Path 1895" d="M1028.64,808.165a101.477,101.477,0,0,1-3.663,35.439c.619-2.153,6.662-5.922,8.381-7.642,1.955-1.955,6.706-5.521,6.995-8.419.27-2.706-3.237-6.889-4.579-9.073A114.983,114.983,0,0,0,1028.64,808.165Z" fill="#80e0dd" stroke="#002e4e" stroke-miterlimit="10" stroke-width="1"/>
          </g>
        </g>
        <path id="Path_1896" data-name="Path 1896" d="M1020.62,750c.231,7.789.858,17.6-7.278,21.7a13.023,13.023,0,0,1-9.181.922" fill="#fff" stroke="#002e4e" stroke-miterlimit="10" stroke-width="1"/>
        <path id="Path_1897" data-name="Path 1897" d="M1010.986,947.792c17.789-2.88,34.907,7.907,52.874,9.293" fill="#fff" stroke="#002e4e" stroke-miterlimit="10" stroke-width="1"/>
        <path id="Path_1898" data-name="Path 1898" d="M1053.309,942.282a66.264,66.264,0,0,0,28.547,1.366" fill="#fff" stroke="#002e4e" stroke-miterlimit="10" stroke-width="1"/>
        <path id="Path_1899" data-name="Path 1899" d="M1089.063,880.578a60.6,60.6,0,0,1-12.177,44.112" fill="none" stroke="#002e4e" stroke-miterlimit="10" stroke-width="1"/>
        <g id="Group_220" data-name="Group 220">
          <g id="Group_219" data-name="Group 219" clip-path="url(#clip-path)">
            <g id="Group_218" data-name="Group 218">
              <path id="Path_1900" data-name="Path 1900" d="M825.942,1003.106c-.647-4.484-1.179-16.131-6.65-17.818-12.753-3.934-4.732,26.953-3.6,30.95a2.814,2.814,0,0,0,1.326,1.743,8.9,8.9,0,0,0,5.089,5.01,3,3,0,0,0,2.943-.778,5.941,5.941,0,0,0,.883-1.12,2.6,2.6,0,0,0,1.012-2.24c0-.052-.011-.1-.015-.156C828.153,1013.919,826.508,1007.027,825.942,1003.106Z" fill="#002e4e"/>
              <path id="Path_1901" data-name="Path 1901" d="M797.095,974.717c-4.282.235-8.757,5.326-11.59,8.1a77.715,77.715,0,0,0-11.087,13.826,2.733,2.733,0,0,0,1.06,4c1.052,3.211,4.885,3.712,7.993,2.952,4.952-1.211,9.1-4.519,12.231-8.438,2.817-3.531,6.293-8.192,6.984-12.767C803.228,978.8,801.293,974.486,797.095,974.717Z" fill="#002e4e"/>
              <path id="Path_1902" data-name="Path 1902" d="M833.74,951.283c-7.415.478-21.251.565-25.505,7.988-1.719,3-.832,6.118,1.956,8.07,4.021,2.816,9.26,1.633,13.61.424A2.861,2.861,0,0,0,825.4,966.7a36.114,36.114,0,0,0,9.661-3.716c2.874-1.623,6.641-3.952,6.224-7.73C840.84,951.254,836.905,951.079,833.74,951.283Z" fill="#002e4e"/>
              <path id="Path_1903" data-name="Path 1903" d="M838.249,925.573c-2.38-6.467-7.689-11.8-13.188-15.706a2.584,2.584,0,0,0-3.976,1.083,6.019,6.019,0,0,0-6.153,1.907c-3.921,4.266-1.859,12.124.851,16.48,2.952,4.748,10.7,10.085,16.53,9.268C838.6,937.725,840.143,930.719,838.249,925.573Z" fill="#002e4e"/>
              <path id="Path_1904" data-name="Path 1904" d="M787.122,950.966a2.868,2.868,0,0,0-1.841.047c-2.6-.366-5.177,1.1-5.217,4.36-.046,3.733,2.747,7.643,5.416,10.028a19.412,19.412,0,0,0,11.183,4.835,3.044,3.044,0,0,0,3.025-3.024A17.333,17.333,0,0,0,787.122,950.966Z" fill="#002e4e"/>
              <path id="Path_1905" data-name="Path 1905" d="M871.5,944.813c-1.236-1.912-1.856-4.259-3.889-5.514-2.4-1.483-5.06-.909-7.245.71-4.421,3.275-6.914,9.644-7.651,14.905-.6,4.314-.8,11.489,4.579,12.8,3.931.958,6.4-1.914,8.076-5.184a20.914,20.914,0,0,0,3.262-5.733,27.854,27.854,0,0,0,1.9-8.043A2.7,2.7,0,0,0,871.5,944.813Z" fill="#002e4e"/>
              <path id="Path_1906" data-name="Path 1906" d="M980.139,930.448c-4.034-4.824-10.6,1-13.912,3.748a55.743,55.743,0,0,0-7.5,7.534c-1.476,1.8-4.209,4.314-3.881,6.849a4.947,4.947,0,0,0,.17.739,9.923,9.923,0,0,0-.344,1.807,3.051,3.051,0,0,0,3.025,3.024c6.174-.027,12.065-5.4,16.281-9.486C977.078,941.657,984.124,935.213,980.139,930.448Z" fill="#002e4e"/>
              <path id="Path_1907" data-name="Path 1907" d="M955.9,905.369c-3.924-3.2-9.541-5.908-14.737-5.141-6.066.894-7.672,5.958-5.323,11.146a19.3,19.3,0,0,0,1.711,2.956c.045.124.09.257.137.37a17.823,17.823,0,0,0,12.063,10.573c4.114,1.033,13.716,1.04,14.628-4.6C965.269,915.2,959.751,908.5,955.9,905.369Z" fill="#002e4e"/>
              <path id="Path_1908" data-name="Path 1908" d="M1010.968,898.479c-2.358-5.859-10.346-6.741-15.62-6.172-4.577.493-13.233,1.182-16.544,5.365-2.466,2.057-4.315,5.005-2.281,7.962,2.555,3.713,10.244,3.863,14.224,3.97a23.626,23.626,0,0,0,11.833-2.5C1006.946,906.093,1012.973,903.459,1010.968,898.479Z" fill="#002e4e"/>
              <path id="Path_1909" data-name="Path 1909" d="M1013.322,924.529c-4.2-4.677-12.383-5.483-15.408.935-1.8,3.817-.824,8.115,1.056,12.175,1.008,3.458,2.7,6.743,5.052,8.523.3.448.6.886.874,1.3a3.179,3.179,0,0,0,5.123.147c3.488-.353,7-2.357,8.412-5.317C1020.868,937.183,1016.764,928.362,1013.322,924.529Z" fill="#002e4e"/>
              <path id="Path_1910" data-name="Path 1910" d="M1055.475,910.061a2.369,2.369,0,0,0-2.161-2.829c-7.339-1.02-15.347-2.2-22.356.948-3.58,1.608-8.161,5.932-5.873,10.344,2.751,5.308,13.107,5.819,18.179,5.967,5.392.156,12.7-1.191,15.537-6.429C1060.829,914.32,1058.981,911.716,1055.475,910.061Z" fill="#002e4e"/>
            </g>
          </g>
        </g>
        <g id="Group_223" data-name="Group 223">
          <g id="Group_222" data-name="Group 222" clip-path="url(#clip-path-2)">
            <g id="Group_221" data-name="Group 221">
              <path id="Path_1912" data-name="Path 1912" d="M935.308,930.09c-.693-3.3-3.513-4.374-6.551-4.361a2.867,2.867,0,0,0-3.4-1.594,28.979,28.979,0,0,0-16.083,10.4c-2.775,3.6-6.59,9.722-1.688,13.3,5.132,3.748,12.8-1.478,16.96-4.451C928.076,940.867,936.375,935.171,935.308,930.09Z" fill="#002e4e"/>
              <path id="Path_1913" data-name="Path 1913" d="M913.788,965.949c-10.547,1.259-18.929,13.628-24.722,21.336a2.36,2.36,0,0,0-.07,3.024,5.37,5.37,0,0,0,.117,4.225c4.249,9.027,19.6-6.406,22.944-10.014,2.924-3.157,7.687-8.02,8.342-12.448C921.007,967.969,917.616,965.492,913.788,965.949Z" fill="#002e4e"/>
              <path id="Path_1914" data-name="Path 1914" d="M893.018,928.019c-.682-1.742-2.64-2.932-4.443-1.807-9.917,6.187-10.889,21.958-10.293,32.4a2.954,2.954,0,0,0,2.119,2.74,5.051,5.051,0,0,0,5.26,3.718c6.026-.162,8.389-9.576,9.342-14.061A39.837,39.837,0,0,0,893.018,928.019Z" fill="#002e4e"/>
              <path id="Path_1915" data-name="Path 1915" d="M918.158,890.646a2.551,2.551,0,0,0-2.782-1.921c-.117.007-.232.02-.349.028-5.293-2.546-11.591-2.909-17.567-1.909-6.912-.083-15.394,2.719-15.131,10.408.326,9.547,19.46,6,25.079,4.948C912.08,901.327,924.9,896.089,918.158,890.646Z" fill="#002e4e"/>
              <path id="Path_1916" data-name="Path 1916" d="M872.663,903.732c-.7.251-1.372.543-2.054.821a12.942,12.942,0,0,0-4.251,1.949,43.443,43.443,0,0,0-6.6,4.213c-3.382,2.633-8.267,6.583-9.67,10.8-1.215,3.655,1.746,6.518,5.29,6.524,3.993.006,8.277-2.7,11.312-5.046,2.481-1.921,10.536-10.531,9.558-15.43C876.7,905.465,875.174,902.825,872.663,903.732Z" fill="#002e4e"/>
              <path id="Path_1917" data-name="Path 1917" d="M871.995,870.533c-1.207-5.77-5.508-4.366-9.49-3.629a12.767,12.767,0,0,1-1.466.077c-4.1.277-7.591,6.136-9.367,9.347-2.255,4.077-4.005,9.416-1.593,13.82,5.03,9.184,15.652-2.532,18.53-7.439C870.6,879.308,872.84,874.571,871.995,870.533Z" fill="#002e4e"/>
            </g>
          </g>
        </g>
      </g>
      <g id="Group_231" data-name="Group 231">
        <g id="Group_226" data-name="Group 226">
          <g id="Group_225" data-name="Group 225" clip-path="url(#clip-path-3)">
            <rect id="Rectangle_419" data-name="Rectangle 419" width="180.073" height="148.06" transform="translate(1248.299 678.401)" fill="#fff" stroke="#002e4e" stroke-miterlimit="10" stroke-width="1"/>
            <path id="Path_1919" data-name="Path 1919" d="M1267.621,732.33a17.674,17.674,0,0,1,4.373-14.753c1.264-1.369,2.722-2.231,3.509-3.987a11.4,11.4,0,0,0,.63-2.567c1.036-5.461,4.509-9.6,9.1-12.5,5.014-3.17,10.016-3.235,15.754-4.2,1.684-.282,3.318-.816,5-1.089a18.053,18.053,0,0,1,4.837-.106,24.748,24.748,0,0,1,12.717,5.764,24.324,24.324,0,0,1,5.681,7.277c1.257,2.156,1.845,4.63,3.078,6.8,1.411,2.478,3.1,2.4,5.476,3.551a15.232,15.232,0,0,1,8.351,10.948c1.915,11.609-9.983,19.96-20.559,17.6-7.987-1.778-19.943-1.726-26.129,4.5-2.547,2.562-4.693,5.575-7.666,7.629q-.453.314-.928.592a19.051,19.051,0,0,1-18.159.488c-7.477-4.131-6.891-12.775-4.494-19.89a5.826,5.826,0,0,0,.449-2.037,6.224,6.224,0,0,0-.44-1.74A15.438,15.438,0,0,1,1267.621,732.33Z" fill="#80e0dd" stroke="#002e4e" stroke-miterlimit="10" stroke-width="1"/>
            <path id="Path_1920" data-name="Path 1920" d="M1286.905,839.265c-9.7-1.142-19.567-2.613-29.175-.849.76-15.2,2.88-30.536,8.821-44.543s16.038-26.67,29.682-33.4c17.075-8.429,37.8-8.435,55.794-3.1,17.655,5.235,34.193,18.743,46.764,31.862a131.869,131.869,0,0,1,17.485,22.738,27.088,27.088,0,0,1,3.044,6.295,15.262,15.262,0,0,1-1.726,12.311c-7.562,11.932-25.437,8.2-37.024,9.389q-15.559,1.6-31.211,2.049A428.115,428.115,0,0,1,1286.905,839.265Z" fill="#b1ea8c" stroke="#002e4e" stroke-miterlimit="10" stroke-width="1"/>
            <path id="Path_1921" data-name="Path 1921" d="M1303.739,777.559c2.971,5.835,9.3,8.739,16.341,7.788l.159-.022a13.319,13.319,0,0,0,10.959-15.808q-1.179-6.062-2.36-12.121a11.123,11.123,0,0,1-.218-4.845,18.025,18.025,0,0,1,2.012-3.977c5.278-9.679-.723-20.668-5.66-29.055a23.524,23.524,0,0,0-19.184-11.707c-17.256-.712-25.751,14.955-22.4,30.289,1.909,8.724,7.161,14.977,13.844,20.534S1304.283,769.244,1303.739,777.559Z" fill="#fff" stroke="#002e4e" stroke-miterlimit="10" stroke-width="1"/>
            <path id="Path_1922" data-name="Path 1922" d="M1287.564,722.968a11.233,11.233,0,0,0-.166,4.039c.205,3.22.008,6.6-1.556,9.417a15.435,15.435,0,0,1-2.975,3.654,9.547,9.547,0,0,1-3.358,2.246,4.166,4.166,0,0,1-3.876-.473,4.524,4.524,0,0,1-1.443-3.842,20.978,20.978,0,0,1,.94-4.155c.673-2.518.939-5.133,1.645-7.643a11.608,11.608,0,0,1,4.061-6.5,6.426,6.426,0,0,1,5.511-.973c.668.219,2.079.826,2.319,1.57C1289,721.341,1287.889,721.913,1287.564,722.968Z" fill="#80e0dd"/>
            <path id="Path_1923" data-name="Path 1923" d="M1289.416,783.574c1.343-5.235,2.544-10.954,1.378-15.7-1.241-5.053-5.381-9.452-7.522-14.183-1.937-4.278-2.954-9.278-1.259-13.658a2.571,2.571,0,0,1,.428-.787c.773-.883,2.325-.47,3.048.455a9.128,9.128,0,0,1,1.217,3.277c.9,3.193,3.086,5.844,5.213,8.393,4.873,5.841,11.085,9.686,12.3,17.717.786,5.186.3,10.571.813,15.806.6,6.118,1.589,12.192,2.157,18.314.593,6.392,2.455,25.706-5.035,28.841-4.717,1.973-16.278.39-19.929-3.393a11.977,11.977,0,0,1-2.93-8.733,33.569,33.569,0,0,1,2.032-9.208c2.315-7.1,4.842-14.142,6.6-21.406C1288.363,787.523,1288.9,785.584,1289.416,783.574Z" fill="#fff" stroke="#002e4e" stroke-miterlimit="10" stroke-width="1"/>
            <path id="Path_1924" data-name="Path 1924" d="M1292.212,721.75a24.079,24.079,0,0,0,4.959-1.918,2.741,2.741,0,0,1,1.217-.417,2.565,2.565,0,0,1,1.078.325c2.5,1.187,5.038,2.5,7.8,2.682s5.845-1.112,6.779-3.716c.13-.363.289-.81.67-.868a.98.98,0,0,1,.728.328c3.132,2.671,6.335,7.246,11.1,5.118,2.533-1.13,3.843-4.059,3.973-6.83.289-6.137-4.239-11.759-9.828-14.31s-12.012-2.546-18.106-1.758a39.9,39.9,0,0,0-12.477,3.4c-4.219,2.079-5.764,5.349-8.076,9.308-1.086,1.859-1.788,4.179-.918,6.148,1.282,2.906,5.164,3.511,8.31,3.069A24.1,24.1,0,0,0,1292.212,721.75Z" fill="#80e0dd"/>
            <path id="Path_1925" data-name="Path 1925" d="M1282.867,740.078a15.435,15.435,0,0,0,2.975-3.654c1.564-2.821,1.761-6.2,1.556-9.417a11.257,11.257,0,0,1,.166-4.039,2.469,2.469,0,0,1,.246-.53,13.459,13.459,0,0,0,1.61-.124,24.092,24.092,0,0,0,7.751-2.482,2.741,2.741,0,0,1,1.217-.417,2.565,2.565,0,0,1,1.078.325c2.5,1.187,5.038,2.5,7.8,2.682s5.845-1.112,6.779-3.716c.13-.363.289-.81.67-.868a.98.98,0,0,1,.728.328c3.132,2.671,6.335,7.246,11.1,5.118" fill="none" stroke="#002e4e" stroke-miterlimit="10" stroke-width="1"/>
            <path id="Path_1926" data-name="Path 1926" d="M1373.23,810.872a.841.841,0,0,0-.982-.7c-3.1-3.186-6.373-6.753-10.133-9.021-.329-.2-.823.224-.563.563a53.011,53.011,0,0,0,4.892,5.018q2.736,2.724,5.416,5.5c.472.491,1.565.155,1.467-.608C1373.3,811.379,1373.262,811.125,1373.23,810.872Z" fill="#b1ea8c" stroke="#002e4e" stroke-miterlimit="10" stroke-width="1"/>
            <path id="Path_1927" data-name="Path 1927" d="M1384.349,808.248c-11.326,1.979-22.833,6.042-32.932,9.765a39.879,39.879,0,0,1-7.879,2.362,54.476,54.476,0,0,1-8.778.1c-7.8-.12-16.1,1.735-21.546,7.318-1.924,1.971-2.453,6.9.689,8.161,3.277,1.315,8.136-.969,11.731-.541a46.081,46.081,0,0,0,10.921.1q16.74-1.769,33.6-1.866c13.067-.074,26.223.6,39.131-1.432a18.533,18.533,0,0,0,7.027-2.2c5.3-3.308,6.705-11.527,2.5-16.047-4.689-5.043-13.57-6.773-20.1-6.926A73.823,73.823,0,0,0,1384.349,808.248Z" fill="#fff" stroke="#002e4e" stroke-miterlimit="10" stroke-width="1"/>
            <path id="Path_1928" data-name="Path 1928" d="M1296.3,733.5a1.36,1.36,0,0,0-1.367.37h0c-.02.023-.046.035-.065.06a.8.8,0,0,0,.176,1.214.921.921,0,0,0,.645.33,1.125,1.125,0,0,0,1.166-1.248A.784.784,0,0,0,1296.3,733.5Z" fill="#002e4e"/>
            <path id="Path_1929" data-name="Path 1929" d="M1318.1,730.257a1.174,1.174,0,0,0-.651-.467.414.414,0,0,0-.676-.086c-.489.5-.6.634-.458,1.345a.683.683,0,0,0,.483.483,1.138,1.138,0,0,0,1.3-.531A.718.718,0,0,0,1318.1,730.257Z" fill="#002e4e"/>
            <path id="Path_1930" data-name="Path 1930" d="M1310.44,736.468c-.387-1.458-1.418-2.969-1.608-4.445a.4.4,0,0,0-.792,0,11.431,11.431,0,0,0,.747,3.681c.374,1.422.379,2.93.821,4.318.174.545,1.12.662,1.226,0A8.575,8.575,0,0,0,1310.44,736.468Z" fill="#002e4e"/>
            <path id="Path_1931" data-name="Path 1931" d="M1319.809,728.568c-1.55-1.389-5-1.2-6.325.449a.393.393,0,0,0,.473.614,8.215,8.215,0,0,1,2.7-1.05,7.745,7.745,0,0,1,2.859.484A.3.3,0,0,0,1319.809,728.568Z" fill="#002e4e"/>
            <path id="Path_1932" data-name="Path 1932" d="M1296,731.156a5.477,5.477,0,0,0-3.98,1.279.5.5,0,0,0,.482.827c1.615-.428,4.108-1.9,5.716-.566a.3.3,0,0,0,.505-.294C1298.428,731.292,1296.975,731.173,1296,731.156Z" fill="#002e4e"/>
            <path id="Path_1933" data-name="Path 1933" d="M1309.626,748.556a1.562,1.562,0,0,1,.232-1.124,14.919,14.919,0,0,1,.953-1.608,4.521,4.521,0,0,1,1.987-1.812,1.94,1.94,0,0,1,2.39.721,2.565,2.565,0,0,1-.418,2.434C1314.122,748.2,1310.365,750.988,1309.626,748.556Z" fill="#002e4e"/>
            <path id="Path_1934" data-name="Path 1934" d="M1326.1,717.355a11.332,11.332,0,0,1-5.629-1.656c-1.079-.769-3.851-3.195-3.633-4.648.064-.429-.523-.776-.762-.321-.968,1.839,1.422,4.316,2.639,5.538,2.008,2.014,4.659,2.571,7.385,2.925C1327.254,719.343,1327.3,717.448,1326.1,717.355Z" fill="#fff"/>
            <path id="Path_1935" data-name="Path 1935" d="M1305.383,715.732a10.362,10.362,0,0,1-3.631-1.264c-.965-.659-3.436-2.545-2.411-3.84.267-.338-.175-.817-.486-.487-1.379,1.46.148,3.282,1.243,4.393,1.309,1.328,3.474,2.84,5.386,1.969A.426.426,0,0,0,1305.383,715.732Z" fill="#fff"/>
            <path id="Path_1936" data-name="Path 1936" d="M1291.294,716.5a17.083,17.083,0,0,0-2.962-.321c-.665-.122-3.74-.924-2.935-2.078.276-.4-.353-.884-.671-.518-2.286,2.629,4.83,5.006,6.663,3.641A.4.4,0,0,0,1291.294,716.5Z" fill="#fff"/>
          </g>
        </g>
        <rect id="Rectangle_421" data-name="Rectangle 421" width="180.073" height="148.06" transform="translate(1248.299 678.401)" fill="none" stroke="#002e4e" stroke-miterlimit="10" stroke-width="1"/>
        <g id="Group_230" data-name="Group 230">
          <path id="Rectangle_422" data-name="Rectangle 422" d="M8.043,0h165.3a8.043,8.043,0,0,1,8.043,8.043V18.073a0,0,0,0,1,0,0H0a0,0,0,0,1,0,0V8.043A8.043,8.043,0,0,1,8.043,0Z" transform="translate(1247.655 670.089)" fill="#002e4e"/>
          <circle id="Ellipse_1" data-name="Ellipse 1" cx="4.93" cy="4.93" r="4.93" transform="translate(1254.034 675.103)" fill="#fff"/>
          <g id="Group_229" data-name="Group 229">
            <path id="Path_1937" data-name="Path 1937" d="M1282.081,679.817a4.93,4.93,0,1,1-5.141-4.709A4.928,4.928,0,0,1,1282.081,679.817Z" fill="#fff"/>
            <g id="Group_228" data-name="Group 228" clip-path="url(#clip-path-4)">
              <path id="Path_1938" data-name="Path 1938" d="M1282.081,679.817a4.93,4.93,0,1,1-5.141-4.709A4.928,4.928,0,0,1,1282.081,679.817Z" fill="#fff"/>
              <g id="Group_227" data-name="Group 227">
                <line id="Line_7" data-name="Line 7" x2="4.752" y2="4.967" transform="translate(1274.78 677.55)" fill="none" stroke="#002e4e" stroke-miterlimit="10" stroke-width="1"/>
                <line id="Line_8" data-name="Line 8" y1="4.752" x2="4.967" transform="translate(1274.673 677.657)" fill="none" stroke="#002e4e" stroke-miterlimit="10" stroke-width="1"/>
              </g>
            </g>
          </g>
        </g>
      </g>
      <g id="Group_240" data-name="Group 240">
        <g id="Group_235" data-name="Group 235">
          <g id="Group_234" data-name="Group 234">
            <g id="Group_233" data-name="Group 233" clip-path="url(#clip-path-5)">
              <rect id="Rectangle_423" data-name="Rectangle 423" width="206.937" height="147.243" transform="translate(608.461 597.269)" fill="#fff" stroke="#002e4e" stroke-miterlimit="10" stroke-width="1"/>
              <g id="Group_232" data-name="Group 232">
                <path id="Path_1940" data-name="Path 1940" d="M747.186,673.754c8.307,3.707,18.473,3.591,29.053-3.108,24.4-15.445,17.365-67.714-23.132-57.416C715.21,622.866,723.88,663.356,747.186,673.754Z" fill="#b1ea8c" stroke="#002e4e" stroke-miterlimit="10" stroke-width="1"/>
                <path id="Path_1941" data-name="Path 1941" d="M783.539,641.689c-4.226,1.424-8.244,3.354-12.527,4.665a97.866,97.866,0,0,1-11.939,2.814q.277-8.022.707-16.038c.3-5.557,1.27-11.471.811-17.015-.03-.36-.563-.48-.661-.09-1.322,5.227-1.242,11.085-1.6,16.45q-.59,8.841-.963,17.694a.847.847,0,0,0,1.056.8c8.558-1.306,18.193-3.377,25.716-7.863C784.873,642.671,784.4,641.4,783.539,641.689Z" fill="#002e4e"/>
                <path id="Path_1942" data-name="Path 1942" d="M760.912,673.595a1.95,1.95,0,0,1,.172-1.294c.2-.362-.219-.867-.6-.6a2.14,2.14,0,0,0-.99,1.825c.006.644.341,1.669,1.151,1.592a.5.5,0,0,0,.46-.35C761.237,674.342,760.994,674,760.912,673.595Z" fill="#002e4e"/>
                <path id="Path_1943" data-name="Path 1943" d="M733.849,643.682c-.412-.806-.918-.242-1.449-.028a7.491,7.491,0,0,1-1.995.192c-.753.065-1.493.167-2.237.3-.465.085-.484.893,0,.96a17.4,17.4,0,0,0,4.2.243C733.122,645.264,734.323,644.611,733.849,643.682Z" fill="#002e4e"/>
                <path id="Path_1944" data-name="Path 1944" d="M761.28,612.545a.483.483,0,0,0-.578-.075,1.742,1.742,0,0,0-.679,2.169.792.792,0,0,0,.555.556.848.848,0,0,0,1.026-.763A2.152,2.152,0,0,0,761.28,612.545Z" fill="#002e4e"/>
                <path id="Path_1945" data-name="Path 1945" d="M735.27,626.148a13.624,13.624,0,0,0-1.941-.472c-.477-.088-.841.578-.352.833a14.791,14.791,0,0,0,1.718.786c.485.179,1.079.473,1.539.118a.392.392,0,0,0,.171-.421C736.274,626.452,735.75,626.311,735.27,626.148Z" fill="#002e4e"/>
                <path id="Path_1946" data-name="Path 1946" d="M743,620.952c-.4-.367-.839-.691-1.257-1.041-.4-.331-.718-.74-1.134-1.043a.449.449,0,0,0-.654.5,4.259,4.259,0,0,0,2.612,2.326A.449.449,0,0,0,743,620.952Z" fill="#002e4e"/>
                <path id="Path_1947" data-name="Path 1947" d="M738.664,662.515a12.054,12.054,0,0,0-2.333,2.167c-.323.406.1,1.143.609.789a12.024,12.024,0,0,0,2.334-2.166C739.61,662.9,739.16,662.153,738.664,662.515Z" fill="#002e4e"/>
                <path id="Path_1948" data-name="Path 1948" d="M746.71,668.683q-.434.714-.868,1.428c-.277.456-.519.759-.347,1.3a.565.565,0,0,0,.682.387c.54-.141.669-.477.908-.96l.744-1.5A.648.648,0,0,0,746.71,668.683Z" fill="#002e4e"/>
                <path id="Path_1949" data-name="Path 1949" d="M774.679,669.905c-.258-.1-.7-.2-.745-.552a.542.542,0,0,0-1.059-.143,1.631,1.631,0,0,0,1.8,2.155C775.487,671.217,775.3,670.142,774.679,669.905Z" fill="#002e4e"/>
              </g>
              <path id="Path_1950" data-name="Path 1950" d="M742.81,757.737c2.469,3.085,7.237,2.575,11.07,1.615s8.387-1.922,11.334.71a58.09,58.09,0,0,0-40.809-60.949c-10.651-3.266-20.438-2.007-31.263-1.313-12.605.808-24.823,5.236-35.683,11.552-16.377,9.525-37.579,24.7-43.253,43.466" fill="#ef7f65" stroke="#002e4e" stroke-miterlimit="10" stroke-width="1"/>
              <path id="Path_1951" data-name="Path 1951" d="M679.8,727.384a17.1,17.1,0,0,1-3.387-3.092c-1.889-2.441-2.227-5.789-1.7-8.831a47.7,47.7,0,0,1,2.91-8.772c6.193-16.226,5.006-34.028,11.058-50.373,1.071-2.892,2.25-6.611,4.225-9.023,1.794-2.191,4.717-4.008,7.042-5.585,9.4-6.373,22.7-10.855,32.1-2.008,5.071,4.772,6.138,12.4,5.974,19.364a78.984,78.984,0,0,1-5.938,28.2,16.081,16.081,0,0,1-9.484,8.975c-3.734,1.33-5.4.938-7.126,4.561-1.965,4.12-2.6,10.249-2.015,14.722.29,2.231.962,4.445.766,6.687-1.062,12.156-15.214,12.452-24.2,10.293A33.838,33.838,0,0,1,679.8,727.384Z" fill="#fff" stroke="#002e4e" stroke-miterlimit="10" stroke-width="1"/>
              <path id="Path_1952" data-name="Path 1952" d="M770.724,684.11a14.962,14.962,0,0,1,3.48-4.9,48.872,48.872,0,0,1,9.911-6.538,1.565,1.565,0,0,1,1.225-.277,1.06,1.06,0,0,1,.554,1.235,3.1,3.1,0,0,1-.751,1.257l-2.431,2.891c-2.891,3.441,3.838,1.293,4.911.906a25.856,25.856,0,0,0,8.26-4.858,21.679,21.679,0,0,1,2.58-2.134,6.05,6.05,0,0,1,4.135-.97,4.815,4.815,0,0,1,3.66,4.44c.233,4.588-3.811,9.66-7.1,11.956A34.9,34.9,0,0,1,787,692.493a2.163,2.163,0,0,0-1.623,1.523l-11.632,42.111a124.909,124.909,0,0,1-4.315,13.079c-1.9,4.769-4.592,9.484-9.827,11.03a11.306,11.306,0,0,1-10.689-2.483c-9.141-8.253.623-24.971,4.055-33.7q4.821-12.261,10.329-24.236,2.753-5.985,5.673-11.891C769.649,686.552,770.16,685.3,770.724,684.11Z" fill="#fff" stroke="#002e4e" stroke-miterlimit="10" stroke-width="1"/>
              <path id="Path_1953" data-name="Path 1953" d="M683.843,642.437a52.873,52.873,0,0,1,4.384-4.28c-2.536-1.73-4.91-4.671-3.985-7.6a6.681,6.681,0,0,1,2.91-3.367,14.656,14.656,0,0,1,11.539-1.875,22,22,0,0,1,9.176,5.565,3.414,3.414,0,0,0,1.323.9,3.288,3.288,0,0,0,1.2.033l12.5-1.2a45.552,45.552,0,0,1,9.789-.231c5.068.612,10.552,3.189,11.006,8.79.457,5.628-3.626,10.665-8.49,13.015-5.177,2.5-11.135,2.656-16.883,2.721s-11.692.128-16.939,2.478c-2.273,1.018-4.471,2.585-5.394,4.9-.55,1.379-.757,3.13-2.082,3.8-2.035,1.028-2.268,1.173-3.05,3.387-.911,2.583-1.942,5.127-3.05,7.631-1.162,2.626-4.44,7.931-7.817,5.205-2.529-2.042-2.255-10.653-2.41-13.687-.361-7.082-.144-16.585,3.721-22.816A24.52,24.52,0,0,1,683.843,642.437Z" fill="#ef7f65" stroke="#002e4e" stroke-miterlimit="10" stroke-width="1"/>
              <path id="Path_1954" data-name="Path 1954" d="M724.539,682.731a2.982,2.982,0,0,1-2.466-.1c-.548-.242-1.274.286-.893.893a3.26,3.26,0,0,0,4.358.917C726.663,683.794,725.677,682.209,724.539,682.731Z" fill="#002e4e"/>
              <path id="Path_1955" data-name="Path 1955" d="M716.028,666.971c-1.122-.7-3.593,1.112-1.434,2.067.866.383,2.168-.5,1.853-1.5A.991.991,0,0,0,716.028,666.971Z" fill="#002e4e"/>
              <path id="Path_1956" data-name="Path 1956" d="M734.514,666.488a1.417,1.417,0,0,0-1.758-.017,1.046,1.046,0,0,0-.1,1.361,1.485,1.485,0,0,0,.19.452.793.793,0,0,0,1.052.276,1.831,1.831,0,0,0,.981-1.181A.8.8,0,0,0,734.514,666.488Z" fill="#002e4e"/>
              <path id="Path_1957" data-name="Path 1957" d="M726.769,668.377c-.161-.475-1.014-.6-1.1,0a39.565,39.565,0,0,1-1.014,5.014c-.3,1.107-.944,2.566-.248,3.623.555.843,2.149.325,1.735-.732-.437-1.114.549-3.242.739-4.389A7.152,7.152,0,0,0,726.769,668.377Z" fill="#002e4e"/>
              <path id="Path_1958" data-name="Path 1958" d="M692.255,667.265a5.553,5.553,0,0,0-3.177-.5,5.818,5.818,0,0,0-2.733,1.03,6.565,6.565,0,0,0-2.393,2.264,7.444,7.444,0,0,0,.237,8.295,5.267,5.267,0,0,0,5.321,1.925" fill="#fff" stroke="#002e4e" stroke-miterlimit="10" stroke-width="1"/>
              <path id="Path_1959" data-name="Path 1959" d="M690.167,671.161a2.9,2.9,0,0,0-2.193,1.291,2.5,2.5,0,0,0-.271,2.634.571.571,0,0,0,.752.263c.36-.2.282-.7.309-1.04a2.306,2.306,0,0,1,1.538-2.15C690.829,672.007,690.755,671.095,690.167,671.161Z" fill="#002e4e"/>
              <path id="Path_1960" data-name="Path 1960" d="M686.406,679.946a17.421,17.421,0,0,0,3.485,1.227c.143.034.259.065.37.1-.29,3.862,3.228,8.054,5.995,9.978a38.241,38.241,0,0,0,8.269,4.128c-.107.057-.222.118-.344.193,0,0,8.147,2.847,13.282,2.582" fill="none" stroke="#002e4e" stroke-miterlimit="10" stroke-width="1"/>
              <path id="Path_1961" data-name="Path 1961" d="M782.058,679.077a.394.394,0,0,0-.76.209,7.069,7.069,0,0,1-1.328,5.359c-.312.467.357.908.741.572A5.556,5.556,0,0,0,782.058,679.077Z" fill="#002e4e"/>
              <path id="Path_1962" data-name="Path 1962" d="M785.56,687.366c-1.484-.58-3.711-.065-5.153.516a6.029,6.029,0,0,0-3.183,2.768.353.353,0,0,0,.609.356,6.3,6.3,0,0,1,3.9-2.362c1.3-.287,2.7-.078,3.908-.662C785.929,687.842,785.8,687.461,785.56,687.366Z" fill="#002e4e"/>
            </g>
          </g>
          <rect id="Rectangle_425" data-name="Rectangle 425" width="206.937" height="147.243" transform="translate(608.461 597.269)" fill="none" stroke="#002e4e" stroke-miterlimit="10" stroke-width="1"/>
        </g>
        <g id="Group_239" data-name="Group 239">
          <path id="Rectangle_426" data-name="Rectangle 426" d="M8,0H200.241a8,8,0,0,1,8,8v9.974a0,0,0,0,1,0,0H0a0,0,0,0,1,0,0V8A8,8,0,0,1,8,0Z" transform="translate(607.82 584.36)" fill="#002e4e"/>
          <circle id="Ellipse_2" data-name="Ellipse 2" cx="4.903" cy="4.903" r="4.903" transform="translate(614.163 589.347)" fill="#fff"/>
          <g id="Group_238" data-name="Group 238">
            <path id="Path_1963" data-name="Path 1963" d="M642.056,594.034a4.9,4.9,0,1,1-5.113-4.683A4.9,4.9,0,0,1,642.056,594.034Z" fill="#fff"/>
            <g id="Group_237" data-name="Group 237" clip-path="url(#clip-path-6)">
              <path id="Path_1964" data-name="Path 1964" d="M642.056,594.034a4.9,4.9,0,1,1-5.113-4.683A4.9,4.9,0,0,1,642.056,594.034Z" fill="#fff"/>
              <g id="Group_236" data-name="Group 236">
                <line id="Line_9" data-name="Line 9" x2="4.119" y2="4.306" transform="translate(635.099 592.097)" fill="none" stroke="#002e4e" stroke-miterlimit="10" stroke-width="0.5"/>
                <line id="Line_10" data-name="Line 10" y1="4.119" x2="4.306" transform="translate(635.006 592.19)" fill="none" stroke="#002e4e" stroke-miterlimit="10" stroke-width="0.5"/>
              </g>
            </g>
          </g>
        </g>
      </g>
      <g id="Group_259" data-name="Group 259">
        <g id="Group_258" data-name="Group 258">
          <rect id="Rectangle_427" data-name="Rectangle 427" width="140.221" height="105.642" rx="5.282" transform="translate(979.617 466.179)" fill="#fff" stroke="#002e4e" stroke-miterlimit="10" stroke-width="1"/>
          <g id="Group_246" data-name="Group 246">
            <ellipse id="Ellipse_3" data-name="Ellipse 3" cx="21.13" cy="10.955" rx="21.13" ry="10.955" transform="translate(1071.436 476.093)" fill="#80e0dd" opacity="0.15"/>
            <g id="Group_245" data-name="Group 245">
              <g id="Group_244" data-name="Group 244">
                <g id="Group_241" data-name="Group 241">
                  <path id="Path_1966" data-name="Path 1966" d="M1087.372,487.048a1.732,1.732,0,1,1-1.731-1.713A1.722,1.722,0,0,1,1087.372,487.048Z" fill="#80e0dd"/>
                </g>
                <g id="Group_242" data-name="Group 242">
                  <path id="Path_1967" data-name="Path 1967" d="M1094.3,487.048a1.732,1.732,0,1,1-1.732-1.713A1.723,1.723,0,0,1,1094.3,487.048Z" fill="#80e0dd"/>
                </g>
                <g id="Group_243" data-name="Group 243">
                  <path id="Path_1968" data-name="Path 1968" d="M1101.224,487.048a1.732,1.732,0,1,1-1.732-1.713A1.723,1.723,0,0,1,1101.224,487.048Z" fill="#80e0dd"/>
                </g>
              </g>
            </g>
          </g>
          <g id="Group_257" data-name="Group 257">
            <g id="Group_256" data-name="Group 256" clip-path="url(#clip-path-7)">
              <g id="Group_255" data-name="Group 255">
                <g id="Group_254" data-name="Group 254">
                  <ellipse id="Ellipse_4" data-name="Ellipse 4" cx="10.614" cy="12.022" rx="10.614" ry="12.022" transform="matrix(0.251, -0.968, 0.968, 0.251, 1018.94, 494.818)" fill="#002e4e"/>
                  <path id="Path_1969" data-name="Path 1969" d="M1064.994,491.648c-3.757-5.057-19.372-9.779-27.267-3.993-16.353,11.986-10.718,40.521,18.322,36.587C1064.788,523.058,1071.644,500.6,1064.994,491.648Z" fill="#002e4e"/>
                  <path id="Path_1970" data-name="Path 1970" d="M1062.441,508.625a17.721,17.721,0,0,1,1.843,5.961c.288,2.912-4.173,8.389-.77,13.685s6.363,1.788,6.368.638c0,0-2.814,3.182-5.408-1.061-2.726-4.461,1.415-9.818,1.354-13.2a27.852,27.852,0,0,0-1.172-6.87Z" fill="#002e4e" fill-rule="evenodd"/>
                  <path id="Path_1971" data-name="Path 1971" d="M1062.519,519.038a1.9,1.9,0,1,0,1.9-1.9A1.9,1.9,0,0,0,1062.519,519.038Z" fill="#fff"/>
                  <g id="Group_253" data-name="Group 253">
                    <g id="Group_252" data-name="Group 252">
                      <g id="Group_247" data-name="Group 247">
                        <path id="Path_1972" data-name="Path 1972" d="M1063.918,499.652c-1.728-6.048-13.441-9.382-23.34-6.368,0,0-2.843,2.705-1.752,14.8a3.7,3.7,0,0,0-4.7-.633c-2.179,1.188-2.408,4-1.669,6.651.888,3.178,4.2,5.917,6.853,4.088h0a57.644,57.644,0,0,1-2.827,13.458c-2.233,5.9-4.625,7.71-7.443,10.215s9.634,14.643,22.156,18.433c0,0,9.823-9.492,5.658-15.658-3.92-5.8-6.3-5.539-5.321-12.354a16.94,16.94,0,0,0,4.253.193c7.255-.546,9.95-14.491,8.133-19.178A24.737,24.737,0,0,0,1063.918,499.652Z" fill="#fff" stroke="#002e4e" stroke-miterlimit="10" stroke-width="1" fill-rule="evenodd"/>
                        <path id="Path_1973" data-name="Path 1973" d="M1038.286,517.026l-1.079-2.876,1.843-.765s-1.2-5.375-4.194-3.394C1032.393,511.619,1035.21,518.118,1038.286,517.026Z" fill="#002e4e"/>
                      </g>
                      <g id="Group_251" data-name="Group 251">
                        <g id="Group_248" data-name="Group 248">
                          <path id="Path_1974" data-name="Path 1974" d="M1059.5,522.662s-1.387-.874-8.578-.716C1051.788,525.96,1058.636,526.531,1059.5,522.662Z" fill="#002e4e"/>
                        </g>
                        <g id="Group_249" data-name="Group 249">
                          <path id="Path_1975" data-name="Path 1975" d="M1063.074,512.874c-.057.682-.952.731-2.044.639s-1.965-.288-1.908-.969.988-1.16,2.079-1.069S1063.131,512.193,1063.074,512.874Z" fill="#002e4e"/>
                          <path id="Path_1976" data-name="Path 1976" d="M1064.688,510.27c.033.1-2.532-2.188-3.22-2.151s-3.248.991-3.5.636a5.393,5.393,0,0,1-.5-1.131s3.6-.679,4.361-.44A7.862,7.862,0,0,1,1064.688,510.27Z" fill="#002e4e"/>
                        </g>
                        <g id="Group_250" data-name="Group 250">
                          <path id="Path_1977" data-name="Path 1977" d="M1052.421,512.274c-.058.681-.953.731-2.044.639s-1.966-.288-1.909-.97.988-1.16,2.08-1.068S1052.477,511.592,1052.421,512.274Z" fill="#002e4e"/>
                          <path id="Path_1978" data-name="Path 1978" d="M1045.939,507.931c-.054.091,3.4-1.324,4.254-1.105s3.615,1.612,3.98,1.325a4.457,4.457,0,0,0,.777-1,30.517,30.517,0,0,0-5.009-1.327A7.806,7.806,0,0,0,1045.939,507.931Z" fill="#002e4e"/>
                        </g>
                        <path id="Path_1979" data-name="Path 1979" d="M1057.294,512.183c-.107-.61-.054-3.74-.054-3.74s-.739,3.161-.359,4.3,2.7,3.705,2.744,4.246a.245.245,0,0,1-.016.085c-1.246-.162-5.219.487-5.269,1.086-.058.691,2.465.776,2.465.776-.2.079,3.809-.535,3.692-1.779S1057.4,512.793,1057.294,512.183Z" fill="#002e4e"/>
                      </g>
                    </g>
                  </g>
                  <path id="Path_1980" data-name="Path 1980" d="M1036.484,517.345a1.9,1.9,0,1,0,1.9-1.9A1.9,1.9,0,0,0,1036.484,517.345Z" fill="#fff"/>
                  <path id="Path_1981" data-name="Path 1981" d="M1041.389,487.506c-4.467,2.019-5.748,4.893-6.932,9.218-.807,5.192,4.369,11.365,4.369,11.365a5.235,5.235,0,0,1,1.941,3.011,16.918,16.918,0,0,1,.412,4.744c-.2,2.619-5.507,6.823-3.029,12s5.978,2.5,6.174,1.482c0,0-3.3,2.41-5.156-1.718-1.949-4.341,3.022-8.485,3.523-11.49.339-2.032-.076-6.046-.38-8.434,2.016.005,5.123-.086,9.468-6.337,7.041-10.129,12.049-2.568,12.049-2.568C1066.355,490.279,1051.779,482.269,1041.389,487.506Z" fill="#002e4e" fill-rule="evenodd"/>
                  <path id="Path_1982" data-name="Path 1982" d="M1022.648,487.909a14.382,14.382,0,0,1,.568,5.573c-.322,2.607-5.821,6.557-3.59,11.845s5.854,2.777,6.1,1.771c0,0-3.412,2.253-5.07-1.959-1.743-4.427,3.418-8.333,4.059-11.31a22.381,22.381,0,0,0,.278-6.243Z" fill="#002e4e" fill-rule="evenodd"/>
                </g>
                <path id="Path_1983" data-name="Path 1983" d="M1029.2,541.6c-7.578,2.421-16.587,6.408-21.987,12.906,5.31-6.444,14.067-10.674,21.573-13.113a.329.329,0,0,1,.378.144C1029.17,541.558,1029.188,541.585,1029.2,541.6Z" fill="#dd4026"/>
                <path id="Path_1984" data-name="Path 1984" d="M1093.736,616.132a.419.419,0,0,1-.027.153,2.02,2.02,0,0,1-.243.6,2.125,2.125,0,0,1-.117.189l-.009.009a1.979,1.979,0,0,1-.252.306,3.082,3.082,0,0,1-.243.243,1.978,1.978,0,0,1-.207.18,5.07,5.07,0,0,1-.477.36c-.153.108-.315.207-.495.315-.216.126-.45.252-.693.369-.117.063-.234.117-.351.171s-.234.108-.36.162-.252.108-.387.162-.261.108-.4.162-.279.108-.423.162c-.279.1-.576.207-.882.306-.765.252-1.6.495-2.511.738-.342.09-.7.18-1.071.27-.387.09-.792.189-1.206.279-.279.054-.549.117-.837.18-1.431.3-2.979.585-4.635.846-.387.063-.792.126-1.2.189l-1.476.216c-.5.072-1.008.144-1.53.207-.765.1-1.557.2-2.358.3-1.071.126-2.16.243-3.276.36-.738.072-1.476.144-2.232.216-.675.063-1.359.126-2.061.18-.576.054-1.17.1-1.764.144-1.179.09-2.385.18-3.6.261-4.779.315-9.783.531-14.814.648-.747.018-1.485.036-2.232.045s-1.485.027-2.232.036c-1.485.018-2.97.027-4.446.027-24.84,0-47.888-2.484-46.925-7.8,3.06-16.929,9.171-48.51,18.386-61.443.333-.468.684-.927,1.053-1.368,5.4-6.5,14.409-10.485,21.987-12.906l.209-.066a39.07,39.07,0,0,1,25.43.662l.308.115c5.373,2.016,11.349,4.572,15.435,7.29,13.689,10.125,20.079,49.068,23.148,65.988A1.562,1.562,0,0,1,1093.736,616.132Z" fill="#ffe35a" stroke="#002e4e" stroke-miterlimit="10" stroke-width="1"/>
              </g>
            </g>
          </g>
        </g>
        <line id="Line_11" data-name="Line 11" x2="95.648" transform="translate(991.74 571.821)" fill="none" stroke="#002e4e" stroke-miterlimit="10" stroke-width="1"/>
      </g>
    </g>
    <g id="Group_261" data-name="Group 261">
      <circle id="Ellipse_5" data-name="Ellipse 5" cx="12.128" cy="12.128" r="12.128" transform="translate(1395.511 700.234)" fill="#ef7f65"/>
      <path id="Path_1985" data-name="Path 1985" d="M1405.765,707.217l6.472,4.49a.8.8,0,0,1,0,1.31l-6.472,4.489a.8.8,0,0,1-1.252-.654v-8.98A.8.8,0,0,1,1405.765,707.217Z" fill="#fff"/>
    </g>
    <g id="Group_264" data-name="Group 264" opacity="0.25">
      <g id="Group_262" data-name="Group 262">
        <path id="Path_1986" data-name="Path 1986" d="M588.717,867.258a8.486,8.486,0,0,1,13.584-3.607l.526.459a8.486,8.486,0,0,0,13.782-4.255l2.713-10.376a8.485,8.485,0,0,1,13.781-4.254l.338.294a8.486,8.486,0,0,0,13.782-4.254l2.557-9.782a8.486,8.486,0,0,1,13.782-4.254h0a8.485,8.485,0,0,0,13.781-4.254" fill="none" stroke="#002e4e" stroke-miterlimit="10" stroke-width="1"/>
        <path id="Path_1987" data-name="Path 1987" d="M624.537,860.435a8.485,8.485,0,0,1,13.584-3.606l.526.458a8.486,8.486,0,0,0,13.782-4.254l2.712-10.377a8.486,8.486,0,0,1,13.782-4.254l.338.294a8.486,8.486,0,0,0,13.782-4.254l2.557-9.782" fill="none" stroke="#80e0dd" stroke-miterlimit="10" stroke-width="2"/>
      </g>
      <path id="Path_1988" data-name="Path 1988" d="M1244.567,591.093a2.677,2.677,0,0,1,3.631,2.544l0,.22a2.677,2.677,0,0,0,3.828,2.459l3.054-1.455a2.677,2.677,0,0,1,3.827,2.46l0,.141a2.677,2.677,0,0,0,3.827,2.46l2.879-1.372a2.676,2.676,0,0,1,3.827,2.459h0a2.677,2.677,0,0,0,3.827,2.46" fill="none" stroke="#002e4e" stroke-linecap="round" stroke-linejoin="round" stroke-width="1"/>
      <g id="Group_263" data-name="Group 263">
        <path id="Path_1989" data-name="Path 1989" d="M896.157,678.4a10.185,10.185,0,0,1,15.459-13.265" fill="none" stroke="#80e0dd" stroke-miterlimit="10" stroke-width="2"/>
        <line id="Line_12" data-name="Line 12" x1="16.975" y2="16.975" transform="translate(916.98 648.1)" fill="none" stroke="#002e4e" stroke-miterlimit="10" stroke-width="1"/>
        <line id="Line_13" data-name="Line 13" x1="16.975" y2="16.975" transform="translate(914.238 657.503)" fill="none" stroke="#002e4e" stroke-miterlimit="10" stroke-width="1"/>
      </g>
      <path id="Path_1990" data-name="Path 1990" d="M793.235,548.292l.271-14.721,10.171,4.279-.989-13.943,10.51,4.422-.973-13.718,10.34,4.351" fill="none" stroke="#b1ea8c" stroke-linecap="round" stroke-linejoin="round" stroke-width="2"/>
      <circle id="Ellipse_6" data-name="Ellipse 6" cx="10.39" cy="10.39" r="10.39" transform="translate(1243.099 906.488)" fill="#80e0dd"/>
      <line id="Line_14" data-name="Line 14" x1="32.809" y2="32.809" transform="translate(1263.878 898.833)" fill="none" stroke="#002e4e" stroke-miterlimit="10" stroke-width="1"/>
      <path id="Path_1991" data-name="Path 1991" d="M1328.445,753.705s-6.956,12.976-18.636,11.252" fill="none" stroke="#002e4e" stroke-miterlimit="10" stroke-width="1"/>
    </g>
    <circle id="Ellipse_7" data-name="Ellipse 7" cx="1.001" cy="1.001" r="1.001" transform="translate(991.549 719.88)" fill="#002e4e"/>
    <circle id="Ellipse_8" data-name="Ellipse 8" cx="1.001" cy="1.001" r="1.001" transform="translate(1004.161 721.882)" fill="#002e4e"/>
    <path id="Path_1992" data-name="Path 1992" d="M1018.9,735.1s-5.381,13.131-15.212,12.365" fill="none" stroke="#002e4e" stroke-miterlimit="10" stroke-width="1"/>
  </g>
</svg>
