<svg xmlns="http://www.w3.org/2000/svg" width="191.698" height="15" viewBox="0 0 191.698 15">
  <g id="Social" transform="translate(-1341 -6147)">
    <g id="facebook">
      <g id="Group_855" data-name="Group 855" transform="translate(401 5883)">
        <path id="Path_1121" data-name="Path 1121" d="M947.8,264l-1.945,0a3.416,3.416,0,0,0-3.6,3.691v1.7h-1.956a.306.306,0,0,0-.305.306v2.466a.305.305,0,0,0,.305.306h1.956v6.222a.307.307,0,0,0,.306.306h2.551a.307.307,0,0,0,.307-.306v-6.222h2.286a.306.306,0,0,0,.306-.306V269.7a.307.307,0,0,0-.306-.306h-2.287v-1.443c0-.693.165-1.046,1.068-1.046H947.8a.306.306,0,0,0,.306-.306v-2.29A.306.306,0,0,0,947.8,264Zm0,0" fill="#3b5998"/>
      </g>
    </g>
    <g id="twitter">
      <g id="Group_858" data-name="Group 858" transform="translate(50)">
        <path id="Path_1122" data-name="Path 1122" d="M18.462,65.776a7.891,7.891,0,0,1-2.181.6,3.764,3.764,0,0,0,1.665-2.092,7.564,7.564,0,0,1-2.4.916A3.785,3.785,0,0,0,9,67.786a3.9,3.9,0,0,0,.088.863,10.713,10.713,0,0,1-7.8-3.959,3.786,3.786,0,0,0,1.163,5.058,3.738,3.738,0,0,1-1.71-.466v.042a3.8,3.8,0,0,0,3.032,3.719,3.777,3.777,0,0,1-.992.125,3.346,3.346,0,0,1-.717-.065A3.821,3.821,0,0,0,5.6,75.739,7.6,7.6,0,0,1,.906,77.353,7.086,7.086,0,0,1,0,77.3,10.655,10.655,0,0,0,5.806,79,10.7,10.7,0,0,0,16.578,68.23c0-.167-.006-.329-.014-.489A7.55,7.55,0,0,0,18.462,65.776Z" transform="translate(1346 6083)" fill="#1da1f2"/>
      </g>
    </g>
    <g id="insta">
      <g id="Group_859" data-name="Group 859" transform="translate(50)">
        <g id="Group_856" data-name="Group 856" transform="translate(512 5910)">
          <path id="Path_1123" data-name="Path 1123" d="M906.86,237H900.14a4.144,4.144,0,0,0-4.14,4.14v6.721a4.144,4.144,0,0,0,4.14,4.14h6.721a4.144,4.144,0,0,0,4.14-4.14V241.14a4.144,4.144,0,0,0-4.14-4.14Zm2.809,10.86a2.812,2.812,0,0,1-2.809,2.809H900.14a2.812,2.812,0,0,1-2.809-2.809V241.14a2.812,2.812,0,0,1,2.809-2.809h6.721a2.812,2.812,0,0,1,2.809,2.809Zm0,0" fill="#e1306c"/>
          <path id="Path_1124" data-name="Path 1124" d="M929.672,267.727a2.945,2.945,0,1,0,2.945,2.945,2.948,2.948,0,0,0-2.945-2.945Zm0,4.876a1.931,1.931,0,1,1,1.931-1.931,1.933,1.933,0,0,1-1.931,1.931Zm0,0" transform="translate(-26.172 -26.172)" fill="#e1306c"/>
          <path id="Path_1125" data-name="Path 1125" d="M986.414,258.188a1.222,1.222,0,1,0,.865.358,1.229,1.229,0,0,0-.865-.358Zm0,0" transform="translate(-79.039 -18.776)" fill="#e1306c"/>
        </g>
      </g>
    </g>
    <g id="linked">
      <g id="Group_860" data-name="Group 860" transform="translate(50)">
        <g id="Group_857" data-name="Group 857" transform="translate(669 6001)">
          <path id="Path_1126" data-name="Path 1126" d="M813.7,155.2V161h-3.365v-5.415c0-1.36-.487-2.289-1.7-2.289a1.841,1.841,0,0,0-1.726,1.231,2.3,2.3,0,0,0-.112.82V161h-3.366s.045-9.171,0-10.121h3.365v1.435l-.022.033h.022v-.033a3.342,3.342,0,0,1,3.033-1.672c2.214,0,3.874,1.447,3.874,4.555ZM799.9,146a1.754,1.754,0,1,0-.045,3.5h.022a1.754,1.754,0,1,0,.022-3.5Zm-1.7,15h3.364V150.879H798.2Zm0,0" fill="#0077b5"/>
        </g>
      </g>
    </g>
  </g>
</svg>
